<svg width="28" height="28" viewBox="0 0 28 28" fill="none" xmlns="http://www.w3.org/2000/svg">
<path d="M11.5 6.775C11.6583 6.775 11.8167 6.83333 11.9417 6.95833L17.375 12.3917C18.2583 13.275 18.2583 14.725 17.375 15.6083L11.9417 21.0417C11.7 21.2833 11.3 21.2833 11.0583 21.0417C10.8167 20.8 10.8167 20.4 11.0583 20.1583L16.4917 14.725C16.8917 14.325 16.8917 13.675 16.4917 13.275L11.0583 7.84167C10.8167 7.6 10.8167 7.2 11.0583 6.95833C11.1833 6.84166 11.3417 6.775 11.5 6.775Z" fill="white"/>
<circle cx="14" cy="14" r="14" transform="rotate(-180 14 14)" fill="white" fill-opacity="0.1"/>
</svg>
